<svg version="1" xmlns="http://www.w3.org/2000/svg" width="666.667" height="666.667" viewBox="0 0 500.000000 500.000000"><path d="M215.8 2.7c.7.3 1.6.2 1.9-.1.4-.3-.2-.6-1.3-.5-1.1 0-1.4.3-.6.6zM202.8 4.7c.7.3 1.6.2 1.9-.1.4-.3-.2-.6-1.3-.5-1.1 0-1.4.3-.6.6zM298 5c.8.5 2 1 2.5 1 .6 0 .3-.5-.5-1s-1.9-1-2.5-1c-.5 0-.3.5.5 1zM196.6 5.9c-.3.4.6.6 1.9.3 1.4-.2 2.5-.6 2.5-.8 0-.8-3.9-.4-4.4.5zM190.5 7c-1.3.5-1.4.9-.5.9.8 0 2.4-.4 3.5-.9 1.3-.5 1.4-.9.5-.9-.8 0-2.4.4-3.5.9zM308.8 7.7c.6.2 1.8.2 2.5 0 .6-.3.1-.5-1.3-.5-1.4 0-1.9.2-1.2.5z"/><path d="M176.5 11c-54.1 17.1-99.1 49.9-131.4 95.6-3.9 5.6-7.1 10.4-7.1 10.7 0 .4-1.3 2.5-2.9 4.9-5.7 8.5-17.1 33.6-22 48.3-4.9 14.9-9.4 33.1-10.6 43.4-.4 3-.9 6.3-1.2 7.5C1 222.6.7 233.6.5 246c-.4 28.4.9 40.1 7 64.9 5.4 21.9 13.7 43.1 24.1 61.2 2 3.5 4.2 7.3 4.8 8.4 2.5 4.4 7.1 11.2 12.4 18.3 32.9 44.6 82.2 78.3 134.6 92.2 25.5 6.7 40.7 8.7 66.1 8.7 17.3 0 32.3-1.1 42.5-3.2 1.4-.3 4-.8 5.9-1.1 19.9-3.3 48.5-13.6 70.1-25.1 26.7-14.3 55.7-37.7 72.8-58.8 3.1-3.8 6.5-7.9 7.5-9 2.3-2.5 14.3-20.4 18.2-27 12.2-21.1 25.5-55.9 28.2-74 .2-1.7.6-3.7.9-4.5.3-.8 1.4-7.6 2.4-15 1.4-10.6 1.8-18.3 1.5-36-.2-12.4-.6-24.1-.9-26-.4-1.9-1.1-6.7-1.7-10.5-4.5-29.4-18-65.4-34.2-91-17.9-28.3-43.5-55.4-69.7-73.7-20.1-14-43.2-25.4-67.8-33.4-15.5-5-14.8-4 1.1 1.6 42.2 14.9 78.5 40.5 105.9 74.6 10 12.5 14 18.6 23.5 35.9 11.4 20.6 22.2 52.5 24.9 73 .3 2.7.8 5.9 1 6.9.9 5 1.8 20.3 1.7 31.3-.1 11.2-.4 16.7-1.9 27.8-.2 2.2-.7 5.3-.9 7-2.6 20.1-11.8 48.2-22.7 69.5-29.9 58.1-81.3 100.3-144.3 118.5-4.9 1.4-10.6 2.8-12.5 3.1-1.9.3-3.9.8-4.3 1.1-.4.2-.6-3.4-.5-8.2l.3-8.7 9.7-2.9c68.5-20.3 120.8-74.2 138.3-142.7 2.3-9.3 2.7-11 4-19.4 2.1-13.3 2.8-45.5 1.2-53.8-.3-1.4-1.1-5.9-1.7-10-1.9-12.2-7.8-32.8-12.7-44.4-6.2-14.5-20.1-37.6-29.5-49.1-6.4-7.8-25.4-26.2-33.6-32.4-14.4-10.9-35.3-22.6-49.2-27.6-10.5-3.8-22.6-7.5-23.4-7.2-.5.2 1.1.9 3.5 1.5 12.8 3.7 38.4 15.3 47.3 21.4 43 29.6 69.2 66.6 81 114.3 2.7 11.1 4.6 26.7 4.8 39.5.2 9.1-.9 27.7-1.6 28.9-.2.3-.7 2.7-1 5.3-.4 2.6-.9 5.3-1.1 6-.2.7-.6 2.5-.9 3.9-.9 5.6-5 18.8-8.4 27.4-20.4 51.1-62.1 90.5-114.3 108-5.9 1.9-11.1 3.5-11.6 3.5-.7 0-.9-5.2-.7-13.7.9-49.4 1.5-74.3 1.8-77.3.2-1.9.7-8.9 1.1-15.5 1.7-31.5 7.7-42.3 31.1-56.5 28.5-17.4 32.4-21.3 38.7-38.5 3.6-10 5.6-20 6.3-31.3l.5-9.7-3.9 9.5c-4.4 10.6-8.5 17.8-14.9 26.1-7.6 9.7-12 12.4-32.3 19.4-22.4 7.7-33.3 13.8-43.1 24.2-13.8 14.6-19.5 27.7-23.5 54.3-.3 2.5-.8 5.2-.9 6.1-.2.9-.6 4-1 7-.3 3-.8 6.5-1 7.9-.2 1.4-.7 4.5-1 7-.3 2.5-.8 5.6-1 7-.2 1.4-.7 5.2-1.1 8.5-.3 3.3-.7 6.9-.9 8-.1 1.1-.3 3.7-.4 5.7-.1 4.9-1.6 4.9-1.9.1-.2-2.1-.5-4.9-.7-6.3-.2-1.4-1.1-8.4-2-15.5-2.9-24.7-5.7-42.2-8.2-53-5.5-23.6-22.6-44.2-45-54.1-3.2-1.5-12.2-4.8-20.1-7.5-15.8-5.4-20.3-7.9-26.8-14.7-7.4-7.7-15.2-21-20.8-35.7l-1.6-4 .5 8.5c.9 16.1 4 29.2 9.8 40.8 5.4 10.8 10.6 15.3 35.2 30.2 16.8 10.2 24.4 19.1 27.9 32.5 3.4 13.4 4.6 37.6 6 116.3.1 7.3-.1 13.5-.5 13.8-.4.2-5.6-1.2-11.6-3.2-39.6-13.2-74.5-40.3-97.3-75.5-11.9-18.5-20.5-39.1-25.4-61-3.4-15.6-3.7-18-4-36.9-.6-31.7 5.2-57.6 19-85.3 23.6-47.4 63-80.5 114.6-96.2 4.6-1.4 6.7-2.3 4.8-2-4.1.6-19.1 5.3-26.7 8.4-47 18.8-83.6 53-107.3 100.2-2.2 4.3-3.7 7.9-3.4 7.9.4 0 .2.6-.4 1.2-1.9 2.4-8.9 23.9-10.7 32.8-.2.8-1 4.9-1.8 9-5 24.2-4 57.8 2.4 83.3 6.7 26.4 20.7 55.3 36.4 75.2 16.5 20.9 32.9 35.2 58.5 50.9 9.9 6.1 29.4 14.3 43.9 18.5l9.6 2.7.3 8.6.3 8.6-6.3-1.4c-74.5-17-136.3-70.3-164.9-142.2-6.6-16.5-12.9-41.4-14.4-56.9-.4-3.2-.8-6.9-1.1-8.3-.5-3.2-.5-34.2.1-39.5.2-2.2.7-6.5 1-9.5 3-27.7 16.6-67.2 30.9-90C69.8 81.5 91.5 58.8 121 39c16.3-11 40.5-22.5 58.8-28 3.9-1.2 7.2-2.4 7.2-2.6 0-.7-1.2-.4-10.5 2.6z"/><path d="M292.5 54c1.1.5 2.9.8 4 .8 1.6 0 1.5-.2-.5-.8-3.4-1.1-6-1.1-3.5 0zM238.3 164.4c-23.6 11-26.8 46.9-5.6 63.1 5.1 3.9 10.5 5.7 17.3 5.7 20.4.2 35.1-21 30.4-43.8-1.7-8.3-4.5-13.6-10.5-19.3-8.5-8.2-21.2-10.5-31.6-5.7z"/></svg>